Coordinates
version=1
nRows=13
nColumns=22
inDegrees=yes

Units are S.I. units (second, meters, Newtons, ...)
If the header above contains a line with 'inDegrees', this indicates whether rotational values are in degrees (yes) or radians (no).

endheader
time	pelvis_tilt	pelvis_list	pelvis_rotation	pelvis_tx	pelvis_ty	pelvis_tz	hip_flexion_r	hip_adduction_r	hip_rotation_r	knee_angle_r	ankle_angle_r	subtalar_angle_r	hip_flexion_l	hip_adduction_l	hip_rotation_l	knee_angle_l	ankle_angle_l	subtalar_angle_l	lumbar_extension	lumbar_bending	lumbar_rotation
      3.90000000	      1.27659064	      5.86301450	    174.61923611	      0.11730337	      0.97233237	     -0.76459552	     -7.99213531	      2.69487192	    -14.92544565	    -23.02411714	     19.35686564	     13.77493833	     31.30918318	     -7.54300805	    -29.74679566	    -10.54878443	      8.49064095	     -3.34758461	     -6.47328663	     -1.37379755	      0.93580542
      3.91000000	      1.21881089	      5.90409842	    174.50148664	      0.10617291	      0.97110924	     -0.76421385	     -8.44054155	      2.52539610	    -14.49623244	    -23.58293023	     18.90790882	     14.38643016	     31.30723199	     -8.03099101	    -30.48531329	    -11.11383993	      8.73465820	     -3.62908312	     -6.37223029	     -1.61107905	      1.22115009
      3.92000000	      1.16295607	      5.98026432	    174.32726316	      0.09472132	      0.97010848	     -0.76375648	     -8.89483148	      2.36624402	    -13.99665911	    -24.13791902	     18.31615734	     15.03698994	     31.23351085	     -8.59929589	    -31.26226908	    -11.82811171	      8.94935845	     -3.86176234	     -6.24178214	     -1.81450218	      1.56837488
      3.93000000	      1.10847511	      6.08762750	    174.10910939	      0.08294004	      0.96933216	     -0.76319896	     -9.35317764	      2.21780752	    -13.42103856	    -24.68834856	     17.55295676	     15.59664766	     31.07442604	     -9.22766165	    -32.11227346	    -12.64364721	      9.13798873	     -4.05141075	     -6.07998128	     -1.98297685	      1.94950680
      3.94000000	      1.06560338	      6.18267370	    173.89819822	      0.07074630	      0.96875502	     -0.76241732	     -9.81789549	      2.03054636	    -12.85737144	    -25.21221231	     16.69192386	     16.44376155	     30.83961816	     -9.83768774	    -33.07998271	    -13.52299837	      9.22801381	     -4.30245008	     -5.85685975	     -2.15532099	      2.31980580
      3.95000000	      1.02381381	      6.27351684	    173.68891348	      0.05818235	      0.96840101	     -0.76142852	    -10.27486993	      1.81930728	    -12.26800588	    -25.74305816	     15.64186183	     17.19186888	     30.50672159	    -10.42814144	    -34.19148982	    -14.41337538	      9.23158810	     -4.59441158	     -5.59168781	     -2.32118389	      2.68966985
      3.96000000	      0.98936809	      6.32938233	    173.51701995	      0.04523568	      0.96825519	     -0.76017489	    -10.70935391	      1.55656338	    -11.69909991	    -26.28832905	     14.43071939	     17.97668258	     30.09065132	    -10.94583259	    -35.47745107	    -15.28362034	      9.07718289	     -4.98895884	     -5.27049195	     -2.51519086	      3.01725189
      3.97000000	      0.95869098	      6.31350535	    173.41139467	      0.03191561	      0.96832392	     -0.75858463	    -11.10764046	      1.20566172	    -11.17808413	    -26.86815152	     13.04680900	     18.86846022	     29.59375910	    -11.32551736	    -36.92396844	    -16.08907518	      8.71675096	     -5.58398317	     -4.89496144	     -2.77077254	      3.27152984
      3.98000000	      0.93820520	      6.22088363	    173.38253800	      0.01832415	      0.96860755	     -0.75663825	    -11.42986171	      0.76779721	    -10.70867200	    -27.52328833	     11.45110938	     19.77936901	     29.04128646	    -11.54531996	    -38.45555750	    -16.80397773	      8.11687933	     -6.40245030	     -4.47160550	     -3.09261212	      3.44793481
      3.99000000	      0.93806390	      6.05297142	    173.43376643	      0.00453222	      0.96908998	     -0.75437576	    -11.65727903	      0.25732894	    -10.28256140	    -28.25337118	      9.66566656	     20.61759856	     28.48237565	    -11.62024055	    -40.01993906	    -17.47008812	      7.33077616	     -7.39753795	     -3.99786826	     -3.48594392	      3.55738497
      4.00000000	      0.96277091	      5.80968376	    173.56936024	     -0.00933019	      0.96976263	     -0.75176121	    -11.75137102	     -0.32497534	     -9.89428629	    -29.10216386	      7.67695656	     21.38008107	     27.94238318	    -11.52814606	    -41.44778646	    -18.07314081	      6.40770200	     -8.54902962	     -3.49010914	     -3.94508364	      3.59970343
      4.01000000	      1.00632525	      5.51067248	    173.81229047	     -0.02313625	      0.97061154	     -0.74877432	    -11.70200321	     -0.95819042	     -9.59073933	    -30.09056360	      5.49138223	     22.06356559	     27.45402081	    -11.26612281	    -42.51428650	    -18.63549411	      5.41328596	     -9.85224733	     -2.97996202	     -4.45153020	      3.57328972
      4.02000000	      1.07836694	      5.16407638	    174.12774833	     -0.03679122	      0.97160970	     -0.74551640	    -11.48389196	     -1.63307304	     -9.33005569	    -31.23767438	      3.16504898	     22.57792467	     27.04483867	    -10.87024566	    -43.17771599	    -19.19569173	      4.43587211	    -11.09773739	     -2.46843213	     -5.00396758	      3.52508382
